<?xml version="1.0" encoding="utf-8"?>
<!-- Generator: Adobe Illustrator 22.0.0, SVG Export Plug-In . SVG Version: 6.00 Build 0)  -->
<svg version="1.1" id="Layer_1" xmlns="http://www.w3.org/2000/svg" xmlns:xlink="http://www.w3.org/1999/xlink" x="0px" y="0px"
	 viewBox="0 0 2067.7 441.5" style="enable-background:new 0 0 2067.7 441.5;" xml:space="preserve">
<style type="text/css">
	.st0{fill:#AFAFAF;}
	.st1{fill:#BBE05A;}
</style>
<g>
	<polygon class="st0" points="812.2,432.3 812.2,0 753.9,0 753.9,432.3 812.2,432.3 	"/>
	<path class="st0" d="M1308.8,250.6c0-30.1,5.7-51.9,17.1-65.5c11.4-13.6,30.3-21.3,56.7-23.3v-61.5c-16.7,0.2-31.3,3.8-43.9,10.8
		c-12.6,7-23.8,17.8-33.5,32.2v-37.7h-55.3v326.6h58.9L1308.8,250.6L1308.8,250.6z"/>
	<polygon class="st0" points="1989.6,377.1 1833.1,377.1 1980.7,166 1980.7,105.7 1782.5,105.7 1782.5,159.1 1921.5,159.1 
		1763.5,384.8 1763.5,432.3 1989.6,432.3 1989.6,377.1 	"/>
	<path class="st1" d="M321.5,311.4c-12.8,0-24.4-5-33.1-13.1c-15,46.4-58.5,79.9-109.9,80C114.8,378.3,63,326.6,63,262.8
		c0,0,0,0,0-0.1c0-63.8,51.7-115.5,115.5-115.5c0,0,0,0,0,0l0,0c51.4,0,95,33.5,110,80c8.7-8.1,20.4-13.1,33.3-13.1h0
		c11.1,0,21.3,3.8,29.5,10.1c-17.3-80-88.5-140-173.6-140C79.5,84.2,0,163.8,0,261.9s79.5,177.8,177.7,177.8
		c84.5,0,155.2-59,173.2-138C342.7,307.8,332.5,311.4,321.5,311.4z"/>
	<path class="st1" d="M2023.8,218.9c24.2,0.1,43.8,19.7,43.7,43.9c-0.1,24.2-19.7,43.8-43.9,43.7c-24.2-0.1-43.7-19.7-43.7-43.8
		C1979.8,238.5,1999.5,218.9,2023.8,218.9C2023.7,218.9,2023.7,218.9,2023.8,218.9z"/>
	<path class="st0" d="M703.2,201.3c-8.7-20.7-21.3-39.5-37-55.5c-15.7-16.1-34.5-28.9-55.2-37.7c-20.3-8.5-42.4-12.8-66.2-12.8
		c-22.2,0-44.1,4.9-64.3,14.2c-21,9.8-39.9,23.6-55.6,40.7c-15,15.6-26.8,34-34.7,54.2c-7.8,20.1-11.8,41.7-11.8,64.9
		c0,22.4,4.4,44.5,12.9,65.2c8.3,20.8,20.5,39.8,35.9,56c15.3,16.3,33.9,29.3,54.5,38.2c20.2,8.6,42.4,12.9,66.4,12.9
		c22.8,0.1,45.4-4.7,66.2-14.1c20.7-9.4,39.4-23.2,56.1-41.4c14.7-16.2,26.2-35,33.8-55.5c8-20.9,12.1-43,12.1-65.3
		C716.1,243.2,711.7,221.5,703.2,201.3z M624.3,350.2c-20.5,21.9-46,32.8-76.3,32.8c-30.9,0-56.8-10.9-77.5-32.7
		c-20.7-21.8-31.1-49-31.1-81.6c0-32.9,10.4-60.2,31.1-82.1c20.7-21.9,46.4-32.8,76.9-32.8c30.7,0,56.4,10.8,76.9,32.4
		c20.5,21.6,30.8,48.9,30.8,81.9C655.1,301,644.8,328.3,624.3,350.2z"/>
	<path class="st0" d="M1134.2,105.7v39.5c-15.5-16-32.6-28-51.5-35.9c-18.9-7.9-39.5-11.9-61.9-11.9c-25,0-47.3,4.1-66.8,12.3
		s-37.5,20.9-54,38.1c-15.1,15.6-26.9,34.1-34.8,54.3c-8.2,20.8-12.3,43-12.2,65.3c0,49.3,16.3,90.3,48.8,123.1
		s73.4,49.1,122.6,49.1c20.4,0.1,40.6-4,59.4-12c18.5-8,35.4-19.8,50.4-35.5v40.1h59.5l0,0V105.7H1134.2z M1104,349.9
		c-22.1,22.5-47.7,33.7-76.6,33.7c-31.8,0-58.6-11.2-80.5-33.5C924.9,327.7,914,300,914,266.9c0-31.5,11-58.1,32.9-79.9
		c21.9-21.8,48.4-32.7,79.3-32.7c30.2,0,56.2,11.4,78.1,34.3c21.9,22.9,32.9,50.3,32.9,82.4C1137.1,301.2,1126.1,327.4,1104,349.9z"
		/>
	<path class="st0" d="M1677.2,105.7v39.5c-15.5-16-32.6-28-51.5-35.9c-18.9-7.9-39.5-11.9-61.9-11.9c-25,0-47.3,4.1-66.8,12.3
		c-19.5,8.2-37.5,20.9-54,38.1c-15.1,15.6-26.9,34.1-34.8,54.3c-8.2,20.8-12.3,43-12.2,65.3c0,49.3,16.3,90.3,48.8,123.1
		s73.4,49.1,122.6,49.1c20.4,0.1,40.6-4,59.4-12c18.5-8,35.4-19.8,50.4-35.5v40.1h59.5v0V105.7H1677.2z M1647,349.9
		c-22.1,22.5-47.7,33.7-76.6,33.7c-31.7,0-58.6-11.2-80.5-33.5c-21.9-22.4-32.9-50.1-32.9-83.1c0-31.5,11-58.1,32.9-79.9h0
		c21.9-21.8,48.3-32.7,79.3-32.7c30.1,0,56.2,11.4,78.1,34.3c21.9,22.9,32.9,50.3,32.9,82.4C1680.2,301.2,1669.1,327.4,1647,349.9z"
		/>
</g>
</svg>
